<svg height="498pt" viewBox="0 -58 498.838 498" width="498pt" xmlns="http://www.w3.org/2000/svg"><path d="m351.972656 42.855469h17.523438s22.589844-.273438 40.378906 16.214843h9.675781c8.234375 0 16.136719 1.421876 23.484375 4.011719v-4.011719c0-30.183593-24.46875-54.652343-54.648437-54.652343-25.101563 0-46.238281 16.933593-52.648438 39.992187 5.261719-1.003906 10.683594-1.554687 16.234375-1.554687zm0 0" fill="#e0ebfc"/><path d="m479.078125 363.621094c-.015625-.332032-.042969-.660156-.0625-.996094-.039063-.644531-.082031-1.285156-.140625-1.925781-.035156-.394531-.085938-.789063-.128906-1.1875-.0625-.5625-.128906-1.125-.207032-1.683594-.0625-.429687-.125-.851563-.191406-1.277344-.082031-.519531-.175781-1.03125-.269531-1.542969-.082031-.445312-.167969-.894531-.261719-1.335937-.097656-.472656-.203125-.9375-.3125-1.402344-.113281-.472656-.21875-.949219-.339844-1.417969-.097656-.378906-.207031-.753906-.3125-1.132812-.570312-2.054688-1.242187-4.066406-2.007812-6.03125-.066406-.167969-.125-.335938-.191406-.5-.261719-.648438-.535156-1.289062-.816406-1.929688-.082032-.179687-.15625-.359374-.238282-.539062-.292968-.648438-.597656-1.292969-.914062-1.929688-.070313-.140624-.140625-.285156-.210938-.425781-.339844-.675781-.6875-1.34375-1.050781-2.007812-.035156-.054688-.066406-.113281-.101563-.175781-10.335937-18.707032-29.894531-31.605469-52.558593-32.53125l-.15625.199218h.117187l-7.398437 19.492188c-1.785157 4.695312-6.285157 7.804687-11.308594 7.804687h-44.355469c-5.023437 0-9.523437-3.109375-11.308594-7.804687l-6.421874-16.925782c-.453126-.804687-.785157-1.667968-.976563-2.570312-17.855469 1.574219-33.5625 10.597656-44.015625 23.933594h-.007812c-.042969.050781-.078126.105468-.117188.152344-.339844.4375-.671875.886718-1 1.332031-.203125.277343-.410156.554687-.609375.835937-.3125.4375-.617187.882813-.921875 1.332032-.203125.300781-.402344.601562-.601562.90625-.289063.441406-.570313.886718-.84375 1.335937-.199219.324219-.390626.648437-.582032.972656-.265625.445313-.527344.894531-.78125 1.347657-.1875.34375-.371094.6875-.558594 1.035156-.238281.449218-.476562.898437-.707031 1.355468-.183593.363282-.355469.734376-.535156 1.105469-.214844.445313-.433594.890625-.632813 1.34375-.199218.441407-.382812.890625-.570312 1.335938-.296875.710937-.585938 1.429687-.859375 2.15625-.1875.496093-.378906.988281-.554687 1.488281-.140626.398438-.261719.796875-.394532 1.199219-.15625.484375-.316406.964843-.464844 1.457031-.121093.402344-.230468.808594-.34375 1.21875-.136718.492188-.273437.984375-.398437 1.484375-.101563.40625-.195313.820313-.292969 1.230469-.117187.507812-.230468 1.019531-.335937 1.53125-.082031.40625-.160157.816406-.234375 1.226562-.101563.527344-.1875 1.0625-.273438 1.597656-.058594.398438-.125.800782-.179687 1.203126-.078125.5625-.140625 1.132812-.203125 1.703124-.042969.378907-.085938.753907-.121094 1.132813-.058594.632813-.097656 1.273437-.136719 1.914063-.023437.320312-.046875.640624-.0625.960937-.046875.964844-.070312 1.933594-.070312 2.910156v12.605469h199.601562v-12.605469c.007813-.992187-.019531-1.976562-.066406-2.960937zm0 0" fill="#6bdddd"/><path d="m347.3125 331.144531h61.050781l10.359375-27.296875h-.070312c.175781-.707031.296875-1.429687.296875-2.171875v-17.144531c-12.300781 6.40625-26.277344 10.039062-41.109375 10.039062-14.832032 0-28.8125-3.632812-41.113282-10.039062v17.195312c0 .71875.117188 1.425782.28125 2.117188h-.054687zm0 0" fill="#f9cfcf"/><path d="m336.777344 302.425781c.042968.480469.117187.953125.230468 1.417969h-.054687l10.359375 27.300781h61.050781l10.359375-27.296875h-.070312c.117187-.464844.191406-.941406.242187-1.421875zm0 0" fill="#6bdddd"/><path d="m184.988281 298.410156h-15.226562c-.035157-.003906-.066407-.007812-.101563-.007812l-.003906.007812h-100.1875c-26.464844 0-47.921875 21.453125-47.921875 47.921875v30.867188h211.367187v-30.867188c0-26.46875-21.457031-47.921875-47.925781-47.921875zm0 0" fill="#a4c9ff"/><path d="m127.230469 287.382812c-15.355469 0-29.84375-3.65625-42.640625-10.128906v19.359375c0 .675781.097656 1.335938.234375 1.988281h.015625c.136718.652344.347656 1.285157.613281 1.890626.035156.078124.066406.160156.105469.238281.117187.25.246094.492187.382812.730469.136719.226562.285156.449218.441406.671874.085938.117188.160157.242188.25.355469l6.054688 7.699219c6.03125 7.667969 14.398438 13.222656 23.863281 15.441406 1.269531.296875 2.589844.554688 3.953125.757813 15.375 2.304687 30.753906-4.242188 40.3125-16.574219l8.828125-11.390625c.121094-.609375.203125-1.230469.203125-1.855469v-19.296875c-12.789062 6.464844-27.273437 10.113281-42.617187 10.113281zm0 0" fill="#f9cfcf"/><path d="m84.589844 295.097656v5.546875c0 .671875.097656 1.335938.234375 1.988281.003906 0 .011719 0 .015625-.003906.136718.652344.347656 1.285156.613281 1.890625.035156.078125.066406.160157.105469.238281.117187.25.246094.492188.382812.730469.136719.230469.285156.453125.441406.671875.085938.117188.160157.242188.25.355469l6.054688 7.703125c6.03125 7.667969 14.398438 13.21875 23.863281 15.4375 1.269531.296875 2.589844.554688 3.953125.757812 15.375 2.304688 30.753906-4.242187 40.3125-16.574218l8.828125-11.390625c.121094-.609375.203125-1.226563.203125-1.855469v-5.492188h-85.257812zm0 0" fill="#a4c9ff"/><path d="m443.039062 117.71875h-109.300781c-2.207031 0-4-1.792969-4-4v-54.648438c0-32.339843 26.308594-58.652343 58.648438-58.652343 32.339843 0 58.652343 26.3125 58.652343 58.652343v54.648438c0 2.210938-1.792968 4-4 4zm-105.304687-8h101.300781v-50.648438c0-27.929687-22.71875-50.652343-50.648437-50.652343-27.929688 0-50.652344 22.722656-50.652344 50.652343zm0 0" fill="#3762cc"/><path d="m487.15625 167.917969c0-55.484375-48.796875-100.460938-108.992188-100.460938-60.191406 0-108.988281 44.976563-108.988281 100.460938 0 55.480469 48.796875 100.460937 108.988281 100.460937 60.195313 0 108.992188-44.980468 108.992188-100.460937zm0 0" fill="#e0ebfc"/><path d="m378.164062 272.378906c-62.300781 0-112.988281-46.863281-112.988281-104.460937 0-57.597657 50.6875-104.457031 112.988281-104.457031 62.304688 0 112.992188 46.859374 112.992188 104.457031 0 57.597656-50.6875 104.460937-112.992188 104.460937zm0-200.921875c-57.890624 0-104.988281 43.273438-104.988281 96.460938s47.097657 96.460937 104.988281 96.460937c57.894532 0 104.992188-43.273437 104.992188-96.460937s-47.097656-96.460938-104.992188-96.460938zm0 0" fill="#3762cc"/><path d="m467.617188 171.414062c-.1875 0-.375.023438-.5625.027344v-8.429687c0-49.273438-39.945313-89.214844-89.214844-89.214844-49.277344 0-89.21875 39.941406-89.21875 89.214844v8.429687c-.1875-.003906-.375-.027344-.5625-.027344-15.03125 0-27.21875 12.183594-27.21875 27.21875 0 15.03125 12.1875 27.214844 27.21875 27.214844.988281 0 1.960937-.058594 2.917968-.160156 9.207032 39.46875 44.585938 68.878906 86.863282 68.878906 42.273437 0 77.652344-29.410156 86.859375-68.878906.957031.101562 1.933593.160156 2.917969.160156 15.03125 0 27.21875-12.183594 27.21875-27.214844.003906-15.035156-12.183594-27.21875-27.21875-27.21875zm0 0" fill="#f9cfcf"/><path d="m377.839844 298.570312c-42.433594 0-78.945313-28.085937-89.9375-68.71875-17.144532-.085937-31.0625-14.054687-31.0625-31.21875 0-16.050781 12.179687-29.316406 27.78125-31.03125v-4.589843c0-51.398438 41.816406-93.214844 93.21875-93.214844 51.398437 0 93.214844 41.816406 93.214844 93.214844v4.589843c15.601562 1.714844 27.785156 14.976563 27.785156 31.03125 0 17.164063-13.921875 31.132813-31.0625 31.21875-10.996094 40.632813-47.507813 68.71875-89.9375 68.71875zm-86.859375-76.882812c1.839843 0 3.464843 1.265625 3.890625 3.09375 9.035156 38.734375 43.152344 65.789062 82.964844 65.789062s73.929687-27.054687 82.964843-65.792968c.460938-1.964844 2.308594-3.285156 4.320313-3.066406.871094.09375 1.6875.136718 2.496094.136718 12.800781 0 23.21875-10.414062 23.21875-23.214844 0-12.792968-10.394532-23.199218-23.179688-23.21875-.222656.015626-.375.023438-.523438.027344-1.085937.015625-2.113281-.390625-2.878906-1.140625-.769531-.753906-1.203125-1.785156-1.203125-2.859375v-8.429687c0-46.988281-38.230469-85.214844-85.214843-85.214844-46.988282 0-85.21875 38.226563-85.21875 85.214844v8.429687c0 1.074219-.433594 2.105469-1.203126 2.859375-.765624.75-1.820312 1.164063-2.878906 1.140625-.152344-.003906-.304687-.011718-.457031-.023437-.003906 0-.007813 0-.011719 0-12.824218 0-23.230468 10.414062-23.230468 23.214843 0 12.800782 10.414062 23.21875 23.214843 23.21875.808594 0 1.625-.042968 2.5-.136718.148438-.019532.289063-.027344.429688-.027344zm0 0" fill="#3762cc"/><path d="m479.152344 383.191406h-199.605469c-2.207031 0-4-1.792968-4-4v-12.609375c0-1.03125.027344-2.0625.074219-3.085937l.066406-1.027344c.039062-.683594.085938-1.363281.148438-2.039062.023437-.296876.054687-.609376.09375-.917969l.03125-.277344c.066406-.609375.136718-1.210937.214843-1.808594l.195313-1.285156c.089844-.570313.183594-1.136719.289062-1.703125.074219-.425781.160156-.859375.25-1.292969.113282-.558593.230469-1.097656.355469-1.636719l.308594-1.296874c.136719-.542969.28125-1.066407.429687-1.59375.148438-.550782.257813-.925782.367188-1.296876.15625-.519531.324218-1.035156.492187-1.550781l.113281-.34375c.097657-.3125.203126-.625.308594-.933593.148438-.433594.316406-.875.484375-1.320313l.101563-.261719c.289062-.765625.597656-1.527344.914062-2.289062l.179688-.429688c.140625-.332031.277344-.664062.425781-.992187.164063-.367188.335937-.726563.511719-1.085938l.328125-.691406c.132812-.277344.265625-.558594.402343-.832031.203126-.402344.414063-.796875.625-1.191406l.730469-1.359376c.261719-.472656.542969-.949218.820313-1.425781.203125-.34375.410156-.691406.621094-1.03125.296874-.484375.59375-.957031.898437-1.425781l.644531-.96875c.316406-.46875.640625-.945312.972656-1.414062.183594-.257813.378907-.523438.578126-.789063.421874-.574219.773437-1.046875 1.136718-1.511719.042969-.054687.085938-.109375.128906-.160156v-.003906c10.601563-13.527344 26.082032-22.492188 42.933594-24.992188v-15.789062c0-1.394532.730469-2.691406 1.925782-3.417969 1.195312-.722656 2.679687-.773437 3.921874-.128906 12.21875 6.363281 25.429688 9.585937 39.269532 9.585937 13.835937 0 27.046875-3.226562 39.265625-9.585937 1.238281-.644531 2.730469-.59375 3.921875.128906 1.195312.726563 1.925781 2.023437 1.925781 3.417969v15.410156c21.640625 2.226562 41.261719 15.101562 51.871094 34.308594.003906.003906.105469.179687.105469.183594.386718.707031.761718 1.421874 1.121093 2.140624l.222657.445313c.335937.675781.65625 1.359375.96875 2.050781l.246093.5625c.304688.695313.601563 1.375.878907 2.066406l.207031.542969c.808593 2.074219 1.53125 4.234375 2.132812 6.410157l.328125 1.191406c.101563.390625.191406.773437.28125 1.15625l.136719.59375c.097656.421875.195313.839844.28125 1.265625.101563.46875.1875.941406.277344 1.410156.105469.554687.199219 1.105469.289062 1.660156.070313.4375.136719.886719.203125 1.339844.085938.613281.15625 1.210937.222656 1.808594.058594.539062.101563.898437.132813 1.257812.0625.679688.109375 1.359375.152344 2.039063l.023437.359375c.019532.238281.035156.476562.042969.714843.046875 1.042969.078125 2.085938.078125 3.136719v12.609375c-.003906 2.207032-1.792969 4-4.003906 4zm-195.605469-8h191.605469v-8.609375c0-.925781-.027344-1.847656-.070313-2.765625 0-.011718 0-.019531 0-.03125l-.058593-.925781c-.039063-.585937-.078126-1.191406-.132813-1.789063l-.121094-1.105468c-.058593-.542969-.125-1.070313-.195312-1.597656-.054688-.378907-.117188-.78125-.179688-1.179688-.078125-.492188-.164062-.96875-.25-1.449219-.078125-.414062-.160156-.835937-.246093-1.257812-.074219-.363281-.160157-.726563-.242188-1.089844l-.136719-.585937c-.074219-.316407-.144531-.636719-.226562-.953126l-.296875-1.0625c-.53125-1.917968-1.160156-3.816406-1.878906-5.648437l-.183594-.492187c-.234375-.578126-.492188-1.179688-.757813-1.78125l-.226562-.515626c-.269531-.59375-.554688-1.199218-.851563-1.796874l-.1875-.378907c-.332031-.660156-.65625-1.28125-.996094-1.898437l-.121093-.214844c-9.808594-17.757812-28.4375-29.390625-48.679688-30.398438-.714843.082032-1.460937-.03125-2.140625-.359374-1.695312-.824219-2.632812-2.65625-2.1875-4.488282.113282-.464844.167969-.835937.167969-1.144531v-10.8125c-11.652344 5.054687-24.359375 7.707031-37.113281 7.707031-12.757813 0-25.460938-2.648437-37.117188-7.707031v10.863281c0 .316406.058594.703125.171875 1.175782.289063 1.191406.015625 2.449218-.742187 3.414062-.726563.921875-1.816406 1.476562-2.988282 1.523438-16.089843 1.457031-31.054687 9.617187-41.078124 22.40625-.03125.039062-.0625.078124-.097657.117187-.011719.015625-.019531.027344-.019531.027344-.320312.414062-.628906.832031-.9375 1.25l-.566406.769531c-.292969.417969-.582032.835938-.863282 1.25l-.574218.863281c-.261719.40625-.527344.824219-.789063 1.25l-.539062.902344c-.25.417969-.492188.839844-.730469 1.261719l-.65625 1.21875c-.179688.335937-.359375.675781-.53125 1.019531l-.675781 1.410156c-.140625.292969-.285157.585938-.417969.886719-.121094.261719-.230469.53125-.34375.804688l-.195312.457031c-.273438.652343-.542969 1.324219-.796876 2.003906l-.109374.277344c-.136719.371093-.28125.734375-.40625 1.105469l-.375 1.136718c-.148438.449219-.296876.902344-.433594 1.355469-.09375.320313-.183594.636719-.269532.957031-.183593.648438-.308593 1.109375-.429687 1.578125l-.265625 1.121094c-.117188.507813-.21875.988281-.320312 1.472656-.074219.367188-.148438.75-.21875 1.128907-.09375.511718-.175782 1.007812-.253907 1.507812l-.171875 1.136719c-.066406.507812-.128906 1.046875-.191406 1.582031l-.109375 1.046875c-.058594.613281-.09375 1.210937-.132813 1.808594l-.054687.914062c-.042969.890625-.066406 1.800781-.066406 2.714844v8.613281zm0 0" fill="#3762cc"/><path d="m377.839844 256.453125c-13.144532 0-23.441406-7.449219-23.441406-16.957031 0-2.210938 1.792968-4 4-4 2.207031 0 4 1.789062 4 4 0 4.238281 6.339843 8.957031 15.441406 8.957031 9.097656 0 15.4375-4.71875 15.4375-8.957031 0-2.210938 1.792968-4 4-4 2.207031 0 4 1.789062 4 4 0 9.507812-10.296875 16.957031-23.4375 16.957031zm0 0" fill="#3762cc"/><path d="m369.496094 159.203125h-100.933594c-1.351562 0-2.445312-1.09375-2.445312-2.445313v-28.039062c0-47.417969 38.4375-85.859375 85.855468-85.859375h17.523438c30.835937 0 55.832031 24.996094 55.832031 55.828125v4.691406c0 30.832032-24.996094 55.824219-55.832031 55.824219zm0 0" fill="#e0ebfc"/><path d="m485.503906 170.75h-18.921875c-31.316406 0-56.707031-25.386719-56.707031-56.703125v-54.976563h9.675781c39.027344 0 70.664063 31.636719 70.664063 70.664063v36.304687c0 2.601563-2.109375 4.710938-4.710938 4.710938zm0 0" fill="#e0ebfc"/><path d="m485.503906 174.75h-18.921875c-22.132812 0-42.285156-11.980469-52.949219-31-11.265624 12.28125-27.339843 19.457031-44.136718 19.457031h-100.933594c-3.554688 0-6.445312-2.890625-6.445312-6.445312v-28.042969c0-49.550781 40.308593-89.859375 89.855468-89.859375h17.523438c.917968.003906 23.402344-.078125 41.917968 16.210937h8.136719c41.167969 0 74.664063 33.496094 74.664063 74.664063v36.304687c0 4.804688-3.910156 8.710938-8.710938 8.710938zm-71.027344-42.3125c.152344 0 .304688.007812.457032.027344 1.425781.164062 2.652344 1.074218 3.21875 2.390625 8.339844 19.375 27.351562 31.894531 48.429687 31.894531h18.921875c.390625 0 .710938-.320312.710938-.710938v-36.304687c0-36.757813-29.90625-66.664063-66.664063-66.664063h-9.675781c-1.007812 0-1.976562-.382812-2.71875-1.066406-16.453125-15.25-37.417969-15.160156-37.609375-15.148437h-17.574219c-45.132812 0-81.855468 36.722656-81.855468 81.859375v26.488281h99.378906c16.402344 0 32.015625-7.898437 41.761718-21.136719.757813-1.03125 1.957032-1.628906 3.21875-1.628906zm0 0" fill="#3762cc"/><path d="m335.804688 211.769531c-5.132813 0-9.3125-4.175781-9.3125-9.308593v-15.515626c0-5.132812 4.179687-9.308593 9.3125-9.308593 5.132812 0 9.308593 4.175781 9.308593 9.308593v15.515626c0 5.132812-4.175781 9.308593-9.308593 9.308593zm0 0" fill="#3762cc"/><path d="m419.871094 211.769531c-5.132813 0-9.308594-4.175781-9.308594-9.308593v-15.515626c0-5.132812 4.175781-9.308593 9.308594-9.308593 5.136718 0 9.3125 4.175781 9.3125 9.308593v15.515626c0 5.132812-4.175782 9.308593-9.3125 9.308593zm0 0" fill="#3762cc"/><path d="m422.214844 264.847656c-.074219 0-.148438-.003906-.226563-.011718-1.097656-.125-1.882812-1.117188-1.761719-2.214844 2.71875-23.984375-10.320312-30.566406-10.875-30.835938-.992187-.476562-1.417968-1.667968-.945312-2.660156s1.65625-1.417969 2.648438-.957031c.660156.3125 16.207031 7.910156 13.144531 34.90625-.113281 1.019531-.980469 1.773437-1.984375 1.773437zm0 0" fill="#3762cc"/><path d="m334.117188 264.847656c-1.003907 0-1.871094-.753906-1.984376-1.773437-3.0625-27 12.484376-34.597657 13.144532-34.90625 1-.46875 2.195312-.035157 2.660156.964843.464844.996094.039062 2.179688-.957031 2.652344-.558594.269532-13.59375 6.855469-10.875 30.835938.125 1.097656-.664063 2.089844-1.761719 2.210937-.078125.011719-.152344.015625-.226562.015625zm0 0" fill="#3762cc"/><path d="m335.800781 225.207031c-16.816406 0-30.5-13.683593-30.5-30.503906 0-16.816406 13.683594-30.503906 30.5-30.503906 16.820313 0 30.503907 13.6875 30.503907 30.503906 0 16.820313-13.679688 30.503906-30.503907 30.503906zm0-53.007812c-12.40625 0-22.5 10.09375-22.5 22.503906 0 12.40625 10.09375 22.5 22.5 22.5 12.410157 0 22.503907-10.09375 22.503907-22.5s-10.09375-22.503906-22.503907-22.503906zm0 0" fill="#3762cc"/><path d="m419.875 225.207031c-16.820312 0-30.503906-13.683593-30.503906-30.503906 0-16.816406 13.683594-30.503906 30.503906-30.503906 16.816406 0 30.5 13.6875 30.5 30.503906 0 16.820313-13.683594 30.503906-30.5 30.503906zm0-53.007812c-12.410156 0-22.503906 10.09375-22.503906 22.503906 0 12.40625 10.09375 22.5 22.503906 22.5 12.40625 0 22.5-10.09375 22.5-22.5s-10.09375-22.503906-22.5-22.503906zm0 0" fill="#3762cc"/><path d="m397.277344 198.703125h-38.878906c-2.207032 0-4-1.792969-4-4s1.792968-4 4-4h38.878906c2.207031 0 4 1.792969 4 4s-1.792969 4-4 4zm0 0" fill="#3762cc"/><path d="m221.792969 158.832031c-.199219 0-.394531.027344-.59375.03125v-8.796875c0-51.429687-42.070313-93.125-93.96875-93.125-51.898438 0-93.96875 41.695313-93.96875 93.125v8.796875c-.203125-.003906-.394531-.03125-.597657-.03125-15.832031 0-28.667968 12.722657-28.667968 28.410157 0 15.691406 12.839844 28.410156 28.667968 28.410156 1.042969 0 2.066407-.0625 3.078126-.167969 9.695312 41.199219 46.960937 71.898437 91.488281 71.898437 44.527343 0 81.789062-30.699218 91.488281-71.898437 1.011719.105469 2.035156.167969 3.074219.167969 15.835937 0 28.667969-12.71875 28.667969-28.410156 0-15.6875-12.835938-28.410157-28.667969-28.410157zm0 0" fill="#f9cfcf"/><path d="m127.230469 291.382812c-44.636719 0-83.046875-29.324218-94.554688-71.726562-.003906 0-.003906 0-.007812 0-18.011719 0-32.667969-14.542969-32.667969-32.410156 0-16.730469 12.84375-30.542969 29.261719-32.238282v-4.941406c0-53.554687 43.949219-97.125 97.96875-97.125 54.023437 0 97.96875 43.570313 97.96875 97.125v4.941406c16.417969 1.695313 29.261719 15.503907 29.261719 32.238282 0 17.871094-14.652344 32.410156-32.667969 32.410156h-.003907c-11.511718 42.402344-49.921874 71.726562-94.558593 71.726562zm-91.484375-79.898437c1.835937 0 3.460937 1.261719 3.890625 3.085937 9.539062 40.511719 45.554687 68.8125 87.59375 68.8125 42.039062 0 78.054687-28.296874 87.589843-68.8125.464844-1.964843 2.308594-3.28125 4.316407-3.0625.929687.097657 1.800781.144532 2.65625.144532 13.601562 0 24.667969-10.949219 24.667969-24.410156 0-13.445313-11.046876-24.390626-24.636719-24.410157-.238281.015625-.390625.027344-.546875.027344-1.054688.023437-2.113282-.390625-2.878906-1.140625-.765626-.75-1.199219-1.78125-1.199219-2.855469v-8.796875c0-49.144531-40.359375-89.125-89.96875-89.125s-89.96875 39.980469-89.96875 89.125v8.796875c0 1.074219-.433594 2.105469-1.203125 2.855469-.765625.75-1.8125 1.167969-2.875 1.140625-.160156 0-.316406-.011719-.472656-.023437-.003907 0-.007813 0-.011719 0-13.640625 0-24.703125 10.949218-24.703125 24.40625 0 13.460937 11.066406 24.410156 24.667968 24.410156.859376 0 1.726563-.046875 2.65625-.144532.144532-.015624.285157-.023437.425782-.023437zm0 0" fill="#3762cc"/><path d="m194.640625 136.15625h48.550781c3.535156 0 6.40625-2.867188 6.40625-6.40625v-35.707031c0-40.683594-32.980468-73.664063-73.664062-73.664063h-3.003906c-10.613282 0-19.214844 8.605469-19.214844 19.214844v55.636719c-.003906 22.601562 18.320312 40.925781 40.925781 40.925781zm0 0" fill="#e0ebfc"/><path d="m96.324219 136.15625h-84.457031c-3.554688 0-6.433594-2.878906-6.433594-6.429688v-29.382812c0-44.164062 35.800781-79.964844 79.964844-79.964844h49.308593c10.597657 0 19.191407 8.59375 19.191407 19.191406v39.011719c0 31.800781-25.777344 57.574219-57.574219 57.574219zm0 0" fill="#e0ebfc"/><path d="m243.191406 140.15625h-48.550781c-24.773437 0-44.929687-20.152344-44.929687-44.925781v-55.632813c0-12.800781 10.417968-23.214844 23.21875-23.214844h3.003906c42.824218 0 77.664062 34.839844 77.664062 77.664063v35.707031c0 5.734375-4.667968 10.402344-10.40625 10.402344zm-70.261718-115.773438c-8.390626 0-15.21875 6.824219-15.21875 15.214844v55.632813c0 20.363281 16.566406 36.929687 36.929687 36.929687h48.550781c1.324219 0 2.40625-1.082031 2.40625-2.40625v-35.710937c0-38.410157-31.25-69.664063-69.664062-69.664063h-3.003906zm0 0" fill="#3762cc"/><path d="m96.324219 140.15625h-84.457031c-5.753907 0-10.433594-4.675781-10.433594-10.429688v-29.378906c0-46.300781 37.667968-83.964844 83.964844-83.964844h49.308593c12.785157 0 23.191407 10.402344 23.191407 23.191407v39.007812c0 33.953125-27.621094 61.574219-61.574219 61.574219zm-10.921875-115.773438c-41.886719 0-75.964844 34.078126-75.964844 75.964844v29.378906c0 1.339844 1.089844 2.429688 2.429688 2.429688h84.457031c29.542969 0 53.578125-24.035156 53.578125-53.574219v-39.011719c0-8.375-6.816406-15.191406-15.191406-15.191406h-49.308594zm0 0" fill="#3762cc"/><path d="m232.914062 381.195312h-211.367187c-2.207031 0-4-1.789062-4-4v-30.863281c0-28.632812 23.292969-51.921875 51.921875-51.921875h11.121094v-17.15625c0-1.390625.71875-2.679687 1.902344-3.40625 1.1875-.730468 2.660156-.789062 3.902343-.164062 12.714844 6.433594 26.457031 9.699218 40.832031 9.699218 14.371094 0 28.101563-3.261718 40.8125-9.683593 1.238282-.628907 2.71875-.566407 3.902344.160156 1.183594.730469 1.902344 2.019531 1.902344 3.410156v17.140625h11.144531c28.628907 0 51.921875 23.289063 51.921875 51.921875v30.863281c.003906 2.210938-1.785156 4-3.996094 4zm-207.367187-8h203.367187v-26.863281c0-24.21875-19.703124-43.921875-43.925781-43.921875h-15.226562c-.039063 0-.070313 0-.105469 0-1.199219 0-2.335938-.539062-3.097656-1.464844-.757813-.921874-1.070313-2.140624-.835938-3.3125.085938-.421874.125-.769531.125-1.066406v-13.023437c-12.183594 5.207031-25.144531 7.839843-38.617187 7.839843-13.484375 0-26.449219-2.640624-38.636719-7.851562v13.085938c0 .261718.039062.582031.125 1.011718.234375 1.171875-.074219 2.390625-.832031 3.316406-.761719.925782-1.894531 1.460938-3.09375 1.460938h-15.320313c-24.21875 0-43.921875 19.703125-43.921875 43.921875v26.867187zm0 0" fill="#3762cc"/><path d="m220.132812 136.160156c.6875 4.535156 1.066407 9.175782 1.066407 13.90625v8.796875c.199219-.003906.394531-.03125.59375-.03125 7.421875 0 14.167969 2.824219 19.257812 7.410157v-30.082032zm0 0" fill="#e0ebfc"/><path d="m241.054688 170.242188c-.96875 0-1.929688-.351563-2.679688-1.027344-4.566406-4.117188-10.453125-6.378906-16.582031-6.378906-.191407.015624-.351563.023437-.515625.027343-1.054688.023438-2.113282-.390625-2.878906-1.140625-.765626-.75-1.199219-1.78125-1.199219-2.855468v-8.796876c0-4.371093-.339844-8.84375-1.019531-13.308593-.171876-1.152344.164062-2.324219.921874-3.207031.761719-.882813 1.867188-1.390626 3.035157-1.390626h20.917969c2.207031 0 4 1.789063 4 4v30.082032c0 1.582031-.929688 3.011718-2.375 3.65625-.523438.226562-1.074219.339844-1.625.339844zm-15.855469-15.230469c4.160156.433593 8.179687 1.660156 11.855469 3.597656v-18.449219h-12.375c.347656 3.324219.519531 6.640625.519531 9.90625zm0 0" fill="#3762cc"/><path d="m13.976562 136.160156v29.570313c5.019532-4.289063 11.542969-6.894531 18.6875-6.894531.203126 0 .394532.023437.597657.027343v-8.796875c0-4.726562.375-9.367187 1.0625-13.90625zm0 0" fill="#e0ebfc"/><g fill="#3762cc"><path d="m13.976562 169.730469c-.566406 0-1.136718-.125-1.671874-.371094-1.417969-.652344-2.328126-2.070313-2.328126-3.628906v-29.574219c0-2.207031 1.792969-4 4-4h20.347657c1.167969 0 2.277343.507812 3.035156 1.394531.761719.882813 1.097656 2.050781.921875 3.207031-.675781 4.460938-1.019531 8.9375-1.019531 13.304688v8.796875c0 1.074219-.433594 2.105469-1.199219 2.859375-.769531.75-1.8125 1.164062-2.878906 1.140625-.160156-.003906-.320313-.011719-.484375-.023437-.003907 0-.011719 0-.019531 0-5.914063 0-11.625 2.105468-16.101563 5.933593-.738281.632813-1.667969.960938-2.601563.960938zm4-29.570313v18.152344c3.523438-1.761719 7.34375-2.886719 11.285157-3.300781v-4.945313c0-3.261718.171875-6.578125.519531-9.90625zm0 0"/><path d="m124.410156 246.4375c-13.988281 0-24.535156-6.132812-24.535156-14.269531 0-2.207031 1.789062-4 4-4 2.207031 0 4 1.792969 4 4 0 2.210937 6.277344 6.269531 16.535156 6.269531 10.261719 0 16.542969-4.058594 16.542969-6.269531 0-2.207031 1.789063-4 4-4 2.207031 0 4 1.792969 4 4-.003906 8.136719-10.554687 14.269531-24.542969 14.269531zm0 0"/><path d="m81.042969 198.574219c-5.757813 0-10.4375-4.679688-10.4375-10.4375v-17.394531c0-5.757813 4.679687-10.4375 10.4375-10.4375 5.753906 0 10.4375 4.679687 10.4375 10.4375v17.394531c0 5.757812-4.683594 10.4375-10.4375 10.4375zm0 0"/><path d="m167.78125 198.574219c-5.753906 0-10.4375-4.679688-10.4375-10.4375v-17.394531c0-5.757813 4.683594-10.4375 10.4375-10.4375s10.4375 4.679687 10.4375 10.4375v17.394531c0 5.757812-4.683594 10.4375-10.4375 10.4375zm0 0"/><path d="m170.664062 255.652344c-.074218 0-.148437-.003906-.226562-.011719-1.097656-.125-1.886719-1.117187-1.761719-2.214844 2.886719-25.449219-11.324219-32.40625-11.46875-32.476562-1-.464844-1.429687-1.65625-.964843-2.660157.46875-1 1.660156-1.429687 2.660156-.960937.695312.324219 16.957031 8.269531 13.75 36.550781-.117188 1.019532-.984375 1.773438-1.988282 1.773438zm0 0"/><path d="m78.15625 255.652344c-1 0-1.867188-.753906-1.980469-1.773438-3.207031-28.28125 13.050781-36.226562 13.746094-36.550781 1.003906-.464844 2.191406-.039063 2.660156.960937.464844 1 .039063 2.1875-.957031 2.65625-.605469.292969-14.335938 7.234376-11.476562 32.480469.125 1.097657-.664063 2.089844-1.761719 2.214844-.078125.007813-.15625.011719-.230469.011719zm0 0"/><path d="m80.277344 213.929688c-17.550782 0-31.832032-14.277344-31.832032-31.832032 0-17.546875 14.277344-31.828125 31.832032-31.828125 17.546875 0 31.828125 14.28125 31.828125 31.828125 0 17.550782-14.28125 31.832032-31.828125 31.832032zm0-55.660157c-13.140625 0-23.832032 10.691407-23.832032 23.828125 0 13.140625 10.691407 23.832032 23.832032 23.832032 13.136718 0 23.828125-10.691407 23.828125-23.832032 0-13.136718-10.691407-23.828125-23.828125-23.828125zm0 0"/><path d="m168.546875 213.929688c-17.550781 0-31.828125-14.277344-31.828125-31.832032 0-17.546875 14.277344-31.828125 31.828125-31.828125s31.828125 14.28125 31.828125 31.828125c0 17.550782-14.277344 31.832032-31.828125 31.832032zm0-55.660157c-13.140625 0-23.828125 10.691407-23.828125 23.828125 0 13.140625 10.6875 23.832032 23.828125 23.832032s23.828125-10.691407 23.828125-23.832032c0-13.136718-10.6875-23.828125-23.828125-23.828125zm0 0"/><path d="m144.824219 186.097656h-40.824219c-2.207031 0-4-1.789062-4-4 0-2.207031 1.792969-4 4-4h40.824219c2.207031 0 4 1.792969 4 4 0 2.210938-1.792969 4-4 4zm0 0"/></g><path d="m349.574219 310.691406h-24.597657l-23.890624 52.828125v15.671875h72.378906v-15.671875zm0 0" fill="#f9a7a7"/><path d="m373.464844 383.191406h-72.378906c-2.207032 0-4-1.792968-4-4v-15.671875c0-.570312.121093-1.128906.355468-1.648437l23.890625-52.824219c.644531-1.433594 2.070313-2.355469 3.644531-2.355469h24.597657c1.574219 0 3 .921875 3.644531 2.355469l23.890625 52.824219c.234375.519531.355469 1.078125.355469 1.648437v15.671875c0 2.207032-1.789063 4-4 4zm-68.378906-8h64.378906v-10.808594l-22.46875-49.691406h-19.441406l-22.46875 49.691406zm0 0" fill="#3762cc"/><path d="m344.007812 282.910156h-19.402343c-2.78125 0-5.035157 2.253906-5.035157 5.03125 0 2.167969-1.386718 4.09375-3.445312 4.777344l-13.652344 4.535156c-2.058594.683594-3.445312 2.609375-3.445312 4.777344v16.992188c0 1.707031.863281 3.296874 2.296875 4.222656l12.632812 8.179687c.441407.289063.921875.5 1.429688.636719l20.738281 5.5625c.425781.113281.863281.171875 1.304688.171875h100.601562c.929688 0 1.84375-.257813 2.636719-.746094l13.585937-8.355469c1.488282-.914062 2.394532-2.535156 2.394532-4.285156v-20.992187c0-2-1.1875-3.8125-3.019532-4.609375l-6.691406-2.921875c-1.832031-.800781-3.015625-2.613281-3.015625-4.613281v-3.332032c0-2.78125-2.257813-5.03125-5.035156-5.03125zm0 0" fill="#f9a7a7"/><path d="m438.03125 341.800781h-100.601562c-.792969 0-1.574219-.105469-2.335938-.308593l-20.742188-5.5625c-.914062-.246094-1.777343-.625-2.566406-1.140626l-12.636718-8.183593c-2.582032-1.667969-4.121094-4.503907-4.121094-7.582031v-16.992188c0-3.894531 2.484375-7.339844 6.183594-8.570312l13.652343-4.535157c.425781-.140625.707031-.535156.707031-.980469 0-4.980468 4.050782-9.035156 9.035157-9.035156h114.28125c4.980469 0 9.035156 4.054688 9.035156 9.035156v3.332032c0 .410156.242187.78125.617187.949218l6.691407 2.917969c3.292969 1.4375 5.417969 4.6875 5.417969 8.277344v20.992187c0 3.113282-1.644532 6.0625-4.296876 7.691407l-13.585937 8.355469c-1.429687.875-3.0625 1.339843-4.734375 1.339843zm-113.425781-54.890625c-.570313 0-1.035157.464844-1.035157 1.035156 0 3.898438-2.484374 7.34375-6.1875 8.570313l-13.652343 4.539063c-.421875.136718-.707031.53125-.707031.976562v16.992188c0 .355468.175781.675781.46875.867187l12.632812 8.183594c.089844.058593.191406.101562.296875.128906l20.734375 5.5625c.082031.019531.179688.035156.269531.035156h100.601563c.191406 0 .375-.054687.539062-.15625l13.582032-8.355469c.304687-.183593.492187-.523437.492187-.878906v-20.988281c0-.410156-.242187-.78125-.621094-.945313l-6.691406-2.921874c-3.292969-1.441407-5.417969-4.691407-5.417969-8.28125v-3.332032c0-.570312-.460937-1.03125-1.03125-1.03125zm0 0" fill="#3762cc"/><path d="m96.890625 308.699219h-24.601563l-23.890624 52.828125v15.667968h72.382812v-15.667968zm0 0" fill="#f9a7a7"/><path d="m120.78125 381.195312h-72.382812c-2.207032 0-4-1.789062-4-4v-15.667968c0-.566406.125-1.128906.359374-1.648438l23.886719-52.824218c.648438-1.433594 2.074219-2.355469 3.644531-2.355469h24.601563c1.570313 0 2.996094.921875 3.644531 2.355469l23.890625 52.824218c.230469.519532.355469 1.082032.355469 1.648438v15.667968c0 2.210938-1.792969 4-4 4zm-68.382812-8h64.382812v-10.804687l-22.472656-49.691406h-19.4375l-22.472656 49.691406zm0 0" fill="#3762cc"/><path d="m90.582031 282.910156h-19.402343c-2.78125 0-5.03125 2.253906-5.03125 5.03125 0 2.167969-1.386719 4.09375-3.445313 4.777344l-13.65625 4.535156c-2.058594.683594-3.445313 2.609375-3.445313 4.777344v16.992188c0 1.707031.863282 3.296874 2.296876 4.222656l12.632812 8.179687c.441406.289063.925781.5 1.433594.636719l20.738281 5.5625c.425781.113281.863281.171875 1.304687.171875h100.601563c.929687 0 1.84375-.257813 2.632813-.746094l13.585937-8.355469c1.488281-.914062 2.394531-2.535156 2.394531-4.285156v-20.992187c0-2-1.183594-3.8125-3.015625-4.609375l-6.691406-2.921875c-1.835937-.800781-3.019531-2.613281-3.019531-4.613281v-3.332032c0-2.78125-2.253906-5.03125-5.03125-5.03125zm0 0" fill="#f9a7a7"/><path d="m184.605469 341.800781h-100.601563c-.789062 0-1.574218-.105469-2.332031-.308593l-20.746094-5.5625c-.914062-.246094-1.777343-.628907-2.566406-1.140626l-12.636719-8.183593c-2.582031-1.671875-4.121094-4.507813-4.121094-7.582031v-16.992188c0-3.898438 2.484376-7.34375 6.183594-8.570312l13.65625-4.539063c.421875-.140625.707032-.53125.707032-.980469 0-4.976562 4.050781-9.03125 9.03125-9.03125h114.28125c4.980468 0 9.03125 4.050782 9.03125 9.03125v3.332032c0 .414062.246093.785156.621093.949218l6.691407 2.921875c3.292968 1.4375 5.417968 4.683594 5.417968 8.277344v20.988281c0 3.117188-1.648437 6.066406-4.300781 7.695313l-13.582031 8.355469c-1.429688.875-3.0625 1.339843-4.734375 1.339843zm-113.425781-54.890625c-.570313 0-1.03125.464844-1.03125 1.035156 0 3.898438-2.488282 7.34375-6.1875 8.570313l-13.652344 4.539063c-.421875.136718-.707032.53125-.707032.976562v16.992188c0 .355468.175782.675781.46875.871093l12.632813 8.179688c.089844.058593.191406.101562.300781.128906l20.730469 5.5625c.082031.019531.175781.035156.269531.035156h100.601563c.191406 0 .375-.054687.539062-.15625l13.585938-8.355469c.308593-.1875.492187-.515624.492187-.878906v-20.988281c0-.414063-.246094-.78125-.621094-.945313l-6.691406-2.921874c-3.292968-1.441407-5.417968-4.691407-5.417968-8.28125v-3.332032c0-.570312-.464844-1.03125-1.035157-1.03125zm0 0" fill="#3762cc"/><path d="m485.503906 174.75h-18.921875c-22.132812 0-42.285156-11.980469-52.949219-31-11.265624 12.28125-27.339843 19.457031-44.136718 19.457031h-100.933594c-3.554688 0-6.445312-2.890625-6.445312-6.445312v-28.042969c0-49.550781 40.308593-89.859375 89.855468-89.859375h17.523438c.917968.003906 23.402344-.078125 41.917968 16.210937h8.136719c41.167969 0 74.664063 33.496094 74.664063 74.664063v36.304687c0 4.804688-3.910156 8.710938-8.710938 8.710938zm-71.027344-42.3125c.152344 0 .304688.007812.457032.027344 1.425781.164062 2.652344 1.074218 3.21875 2.390625 8.339844 19.375 27.351562 31.894531 48.429687 31.894531h18.921875c.390625 0 .710938-.320312.710938-.710938v-36.304687c0-36.757813-29.90625-66.664063-66.664063-66.664063h-9.675781c-1.007812 0-1.976562-.382812-2.71875-1.066406-16.453125-15.25-37.417969-15.160156-37.609375-15.148437h-17.574219c-45.132812 0-81.855468 36.722656-81.855468 81.859375v26.488281h99.378906c16.402344 0 32.015625-7.898437 41.761718-21.136719.757813-1.03125 1.957032-1.628906 3.21875-1.628906zm0 0" fill="#3762cc"/></svg>