<svg id="Layer_1" height="512" viewBox="0 0 512 512" width="512" xmlns="http://www.w3.org/2000/svg" data-name="Layer 1"><path d="m341.48 348.7a36.458 36.458 0 0 1 11.95 21.66l9.02-4.75 54.27-29.28 6.52-3.52a29.647 29.647 0 0 1 39.47 10.8l-127.91 87.83a89.618 89.618 0 0 1 -55.71 7.86l-73.94-13.61a27.456 27.456 0 0 0 -20.12 2.67l-40.04 25.31-27.97-91.76.23-.07a48.1 48.1 0 0 0 23.21-11.36l12.25-10.91a81.85 81.85 0 0 1 84.87-8.28l5.07 2.45a58.5 58.5 0 0 0 25.47 5.83h49.2a36.46 36.46 0 0 1 24.16 9.13z" fill="#f7caa5"/><path d="m430.08 152.46a27.411 27.411 0 0 1 0 53.76 109.645 109.645 0 0 1 -212.6-.03 27.4 27.4 0 0 1 0-53.71 109.655 109.655 0 0 1 212.6-.02zm-44.24 34.24a10.725 10.725 0 1 0 -10.73 10.72 10.723 10.723 0 0 0 10.73-10.72zm-102.59-3.53a10.72 10.72 0 1 0 -10.72 10.72 10.723 10.723 0 0 0 10.72-10.72z" fill="#f8ec7d"/><path d="m416.68 336.26.04.07-54.27 29.28-9.02 4.75a36.458 36.458 0 0 0 -11.95-21.66l34.89-18.8 8.87-4.78c10.97-5.56 25.36.45 31.44 11.14z" fill="#edb288"/><path d="m388.37 41.14a85.7 85.7 0 0 1 24.13 73.8 109.646 109.646 0 0 0 -195.02 37.54 27.4 27.4 0 0 0 0 53.71 109.766 109.766 0 0 0 56.42 70.78l-27.13 27.13-141.6-141.59a85.822 85.822 0 1 1 141.6-89.33 85.848 85.848 0 0 1 141.6-32.04z" fill="#e48e66"/><path d="m375.11 175.98a10.72 10.72 0 1 1 -10.72 10.72 10.723 10.723 0 0 1 10.72-10.72z" fill="#e48e66"/><path d="m375.94 329.1.43.8-34.89 18.8a36.46 36.46 0 0 0 -24.16-9.13h-10.92l29.02-15.77a33.522 33.522 0 0 1 40.52 5.3z" fill="#edb288"/><path d="m272.53 172.44a10.725 10.725 0 1 1 -10.72 10.73 10.723 10.723 0 0 1 10.72-10.73z" fill="#e48e66"/><path d="m144.99 453.67 12.9 42.33h-88.86l-19.74-161.92h59.24l8.49 27.83z" fill="#e48e66"/><g fill="#63316d"><path d="m375.11 169.98a16.72 16.72 0 1 0 16.73 16.72 16.739 16.739 0 0 0 -16.73-16.72zm0 21.44a4.72 4.72 0 1 1 4.73-4.72 4.725 4.725 0 0 1 -4.73 4.72z"/><path d="m272.53 166.44a16.725 16.725 0 1 0 16.72 16.73 16.744 16.744 0 0 0 -16.72-16.73zm0 21.45a4.725 4.725 0 1 1 4.72-4.72 4.725 4.725 0 0 1 -4.72 4.72z"/><path d="m354.83 214.5a6 6 0 0 0 -6 6 25.005 25.005 0 0 1 -50.01 0 6 6 0 1 0 -12 0 37.005 37.005 0 0 0 74.01 0 6 6 0 0 0 -6-6z"/><path d="m281.44 124.35a5.983 5.983 0 0 0 4.244-1.758l20.97-20.981a6 6 0 0 0 -8.487-8.483l-20.967 20.979a6 6 0 0 0 4.244 10.243z"/><path d="m307.447 122.592a6 6 0 0 0 8.486 0l20.98-20.98a6 6 0 0 0 -8.486-8.486l-20.98 20.979a6 6 0 0 0 0 8.487z"/><path d="m392.613 36.9a91.9 91.9 0 0 0 -145.843 21.462 91.834 91.834 0 1 0 -145.843 108.391l141.6 141.59a6 6 0 0 0 8.486 0l24.111-24.111a115.667 115.667 0 0 0 159.847-73.09 33.418 33.418 0 0 0 0-63.6 114.537 114.537 0 0 0 -16.206-34.095 92.231 92.231 0 0 0 -26.152-76.547zm-145.843 258.714-137.357-137.346a79.821 79.821 0 1 1 112.887-112.883 79.085 79.085 0 0 1 18.815 29.8 6 6 0 0 0 11.312 0 79.1 79.1 0 0 1 18.817-29.8 79.8 79.8 0 0 1 136.21 54.193 115.62 115.62 0 0 0 -194.869 48 33.405 33.405 0 0 0 0 63.529 115.558 115.558 0 0 0 51.46 67.239zm182.144-137.268a21.411 21.411 0 0 1 0 41.988 6 6 0 0 0 -4.653 4.42 103.454 103.454 0 0 1 -100.481 78.206 102.366 102.366 0 0 1 -47.149-11.332 103.579 103.579 0 0 1 -53.333-66.9 6 6 0 0 0 -4.635-4.417 21.4 21.4 0 0 1 0-41.947 6 6 0 0 0 4.635-4.417 103.645 103.645 0 0 1 184.348-35.477 102.709 102.709 0 0 1 16.615 35.457 6 6 0 0 0 4.653 4.419z"/><path d="m420.39 327.53-1.836.991c-8.987-10.625-24.32-14.69-36.027-8.752-.045.022-.089.045-.133.069l-4.851 2.613a39.567 39.567 0 0 0 -45.058-3.885l-27.609 15h-36.756a52.794 52.794 0 0 1 -22.859-5.232l-5.068-2.449a87.51 87.51 0 0 0 -91.091 8.887c-.132.1-.26.2-.383.314l-12.25 10.914a42.025 42.025 0 0 1 -15.381 8.7l-6.819-22.368a6 6 0 0 0 -5.739-4.249h-59.24a6 6 0 0 0 -5.956 6.727l19.74 161.92a6 6 0 0 0 5.956 5.27h88.86a6 6 0 0 0 5.739-7.749l-11.566-37.951 36.031-22.776a21.362 21.362 0 0 1 15.593-2.011c.125.031.25.058.377.082l73.956 13.605a96.243 96.243 0 0 0 59.44-8.386 5.949 5.949 0 0 0 .736-.431l127.91-87.83a6 6 0 0 0 1.745-8.04 35.6 35.6 0 0 0 -47.461-12.983zm-32.376 2.911c6.333-3.17 14.256-.72 19.533 4.019l-47.893 25.84-2.355 1.24a42.658 42.658 0 0 0 -6.161-11.231zm-49.729-1.37c.048-.026.1-.053.145-.081a27.538 27.538 0 0 1 27.281-.163l-23.606 12.719a42.483 42.483 0 0 0 -14.464-6.691zm-263.942 160.929-18.277-149.92h48.021l45.702 149.92zm257.419-63.752a84.126 84.126 0 0 1 -51.586 7.15l-73.759-13.575a33.316 33.316 0 0 0 -24.321 3.3c-.092.051-.183.105-.272.162l-33.389 21.115-23.845-78.216a54.025 54.025 0 0 0 19.861-11.223l12.062-10.742a75.542 75.542 0 0 1 78.456-7.527l5.069 2.45a64.87 64.87 0 0 0 28.082 6.428h49.193a30.607 30.607 0 0 1 29.923 24.273l-35.036-1.587a214.13 214.13 0 0 0 -38.892 1.8 6 6 0 0 0 1.642 11.886 202.239 202.239 0 0 1 36.708-1.7l41.96 1.9h.271a6 6 0 0 0 6-6c0-.789-.03-1.58-.074-2.371l5.483-2.888 60.788-32.8a23.623 23.623 0 0 1 28.017 4.15z"/></g></svg>