<svg xmlns="http://www.w3.org/2000/svg" viewBox="0 0 8 7"><defs><style>.cls-1{isolation:isolate;}.cls-2,.cls-3{fill:#044285;}.cls-2{mix-blend-mode:darken;}.cls-4{fill:#ffb400;}.cls-5{fill:#01a2bd;}</style></defs><title>benchmark_homecare_logo_favicon</title><g class="cls-1"><g id="Layer_1" data-name="Layer 1"><path class="cls-2" d="M3.08,3.83C2.31,2.89,1.43,3.16.52,2,.42,1.84.34,1.73.3,1.66a3.09,3.09,0,0,0-.16.56A4.41,4.41,0,0,0,.3,4.39,5.82,5.82,0,0,0,.57,5,3.06,3.06,0,0,0,1,5.62c.12.14.25.27.37.4a2.8,2.8,0,0,0,.59.45l.42.23A3.3,3.3,0,0,0,3.21,7l.4,0a4.53,4.53,0,0,0-.21-.55,2.93,2.93,0,0,0-.32-.54,5.36,5.36,0,0,0-.4-.43,2.32,2.32,0,0,0-.3-.22C2.19,5.12,2,5,1.79,4.86a2.16,2.16,0,0,1-.57-.52l-.13-.17A3,3,0,0,1,.8,3.76a1.65,1.65,0,0,1-.22-.53s0-.08,0-.12v0l0,0s0,0,0,0,0-.17-.05-.26a.25.25,0,0,1,.19,0,.46.46,0,0,1,.2.25c.08.17.19.41.24.5A1.8,1.8,0,0,0,2,4.37a.9.9,0,0,0-.25-.24C1.58,4,1.49,4,1.43,3.88a.21.21,0,0,1,0-.2.12.12,0,0,1,.1-.06.2.2,0,0,1,.15.08,1.26,1.26,0,0,0,.59.38,2.62,2.62,0,0,1,1,.52,2,2,0,0,1,.37.51,1.78,1.78,0,0,1,.17.37A4,4,0,0,0,3.08,3.83Z" transform="translate(-0.07 0)"/><path class="cls-3" d="M2.73,1.71h.49v.81c-.33-.25-.59-.43-.78-.56a.78.78,0,0,1-.32-.27A1.06,1.06,0,0,1,2,.87,1,1,0,0,1,2.53.3,2.57,2.57,0,0,1,3.71,0,4.92,4.92,0,0,1,4.92.08a1.65,1.65,0,0,1,.69.24,1.09,1.09,0,0,1,.52.73,1.11,1.11,0,0,1-.22.74,1.36,1.36,0,0,1-.33.27,7.56,7.56,0,0,0-.7.52V1.71h.48v0L4.05.47,3.57.92V.74h0a.1.1,0,0,0,0,0s0,0,0,0H3.29s0,0,0,0,0,0,0,0h0v.38a.08.08,0,0,1,0,0c-.13.12-.23.23-.34.32A1.63,1.63,0,0,0,2.73,1.71Z" transform="translate(-0.07 0)"/><path d="M5.2,2" transform="translate(-0.07 0)"/><path class="cls-4" d="M4,2.23v.39H3.73c-.06,0-.08,0-.08-.1V2.23Z" transform="translate(-0.07 0)"/><path class="cls-4" d="M3.65,2.14V1.85c0-.06,0-.09.07-.09H4v.38Z" transform="translate(-0.07 0)"/><path class="cls-4" d="M4.1,2.62V2.23h.35c0,.1,0,.21,0,.31a.08.08,0,0,1-.07.08Z" transform="translate(-0.07 0)"/><path class="cls-4" d="M4.45,2.14H4.1V1.76h.3s0,.05,0,.07S4.45,2,4.45,2.14Z" transform="translate(-0.07 0)"/><path d="M2.88,1.55" transform="translate(-0.07 0)"/><path class="cls-2" d="M4.38,5.46a2,2,0,0,1,.5-.86,3.26,3.26,0,0,1,1-.52A1.26,1.26,0,0,0,6.5,3.7s.09-.08.15-.08a.15.15,0,0,1,.1.06.14.14,0,0,1,0,.11.17.17,0,0,1-.06.09l-.59.51c.62-.31.83-.59.9-.81a3.14,3.14,0,0,1,.24-.5c.07-.13.14-.24.25-.27a.35.35,0,0,1,.15,0l-.06.26,0,0,0,0v0s0,0,0,0,0,.08,0,.09a2.56,2.56,0,0,1-.64,1.11,7.08,7.08,0,0,1-1.16.92A4.15,4.15,0,0,0,4.53,7a2.41,2.41,0,0,0,.41,0A3.69,3.69,0,0,0,7.17,5.62,4.47,4.47,0,0,0,8,2.22a3.68,3.68,0,0,0-.16-.56A2.69,2.69,0,0,1,7.63,2c-.92,1.19-1.82.91-2.56,1.85A3.64,3.64,0,0,0,4.38,5.46Z" transform="translate(-0.07 0)"/><path class="cls-5" d="M3.68,4.64a2.33,2.33,0,0,0,0-1,2.4,2.4,0,0,0-.24-.58A1.93,1.93,0,0,0,3,2.56l-.44-.35-.45-.3a1.75,1.75,0,0,1-.38-.34.75.75,0,0,1-.17-.46c0-.13.06-.22,0-.22s-.06,0-.27.42a1.09,1.09,0,0,0-.11.78c.07.19.2.28.5.47.79.52.77.46,1,.62a3.1,3.1,0,0,1,.81,1A2.9,2.9,0,0,1,3.68,4.64Z" transform="translate(-0.07 0)"/><path class="cls-5" d="M4.49,4.65a2.33,2.33,0,0,1,0-1,2.4,2.4,0,0,1,.24-.58,2.36,2.36,0,0,1,.44-.5l.45-.35.45-.3a2,2,0,0,0,.38-.34.79.79,0,0,0,.16-.45.89.89,0,0,0,0-.23A1.47,1.47,0,0,1,7,2.1c0,.15-.2.26-.49.48s-.43.27-.61.38a2.28,2.28,0,0,0-.36.23,3.38,3.38,0,0,0-.81,1A3.94,3.94,0,0,0,4.49,4.65Z" transform="translate(-0.07 0)"/></g></g></svg>