<svg xmlns="http://www.w3.org/2000/svg" viewBox="0 0 10 8"><defs><style>.cls-1{isolation:isolate;}.cls-2,.cls-3{fill:#044285;}.cls-2{mix-blend-mode:darken;}.cls-4{fill:#ffb400;}.cls-5{fill:#01a2bd;}</style></defs><title>benchmark_homecare_logo</title><g class="cls-1"><g id="Layer_1" data-name="Layer 1"><path class="cls-2" d="M3.76,4.38C2.8,3.31,1.7,3.61.56,2.26.43,2.11.34,2,.28,1.89a4.59,4.59,0,0,0-.19.65A4.59,4.59,0,0,0,.63,5.73a3.5,3.5,0,0,0,.51.69c.15.16.3.31.46.46a3.31,3.31,0,0,0,.73.51,3.71,3.71,0,0,0,.53.26A4.85,4.85,0,0,0,3.93,8l.49,0a3.62,3.62,0,0,0-.26-.62,2.81,2.81,0,0,0-.4-.63c-.16-.17-.33-.33-.5-.48A2.45,2.45,0,0,0,2.89,6l-.74-.45A2.43,2.43,0,0,1,1.43,5c-.05-.06-.11-.12-.16-.19A3.91,3.91,0,0,1,.91,4.3a2,2,0,0,1-.27-.61s-.06-.09,0-.14v0l0,0,0,0c0-.1,0-.2-.07-.29a.3.3,0,0,1,.23,0A.57.57,0,0,1,1,3.52c.1.2.23.47.29.58A2.21,2.21,0,0,0,2.38,5a1,1,0,0,0-.31-.27c-.19-.13-.3-.14-.38-.28s-.08-.15,0-.24a.16.16,0,0,1,.13-.06A.21.21,0,0,1,2,4.23a1.61,1.61,0,0,0,.74.44A3.22,3.22,0,0,1,4,5.26a2.78,2.78,0,0,1,.47.58,2.69,2.69,0,0,1,.21.42A4.42,4.42,0,0,0,3.76,4.38Z" transform="translate(0 0)"/><path class="cls-3" d="M3.32,2h.61v.93a11.62,11.62,0,0,0-1-.65,1,1,0,0,1-.39-.31A1.09,1.09,0,0,1,2.46,1,1.19,1.19,0,0,1,3.08.34,3.54,3.54,0,0,1,4.54,0,7,7,0,0,1,6.06.09a2.32,2.32,0,0,1,.86.28,1.22,1.22,0,0,1,.65.83A1.09,1.09,0,0,1,7.29,2a1.32,1.32,0,0,1-.4.31A8.83,8.83,0,0,0,6,3V2h.59v0L5,.54l-.6.51V.85h0a.08.08,0,0,0,0,0,0,0,0,0,0,0,0H4a0,0,0,0,0,0,0s0,0,0,0h0v.44a.05.05,0,0,1,0,0c-.17.15-.29.27-.44.38A1.51,1.51,0,0,0,3.32,2Z" transform="translate(0 0)"/><path d="M6.41,2.27" transform="translate(0 0)"/><path class="cls-4" d="M4.93,2.55V3H4.57c-.07,0-.1,0-.1-.12V2.55Z" transform="translate(0 0)"/><path class="cls-4" d="M4.47,2.44V2.11A.09.09,0,0,1,4.56,2h.36v.43Z" transform="translate(0 0)"/><path class="cls-4" d="M5,3V2.55h.44V2.9a.1.1,0,0,1-.1.09Z" transform="translate(0 0)"/><path class="cls-4" d="M5.48,2.45H5V2h.37s.06,0,.06.09S5.48,2.33,5.48,2.45Z" transform="translate(0 0)"/><path d="M3.5,1.77" transform="translate(0 0)"/><path class="cls-2" d="M5.38,6.25a2.14,2.14,0,0,1,.62-1,4.16,4.16,0,0,1,1.3-.59A1.61,1.61,0,0,0,8,4.23a.26.26,0,0,1,.18-.09.17.17,0,0,1,.13.06.21.21,0,0,1,0,.14.21.21,0,0,1-.07.1c-.08,0-.35.27-.74.57.78-.34,1.05-.67,1.13-.91A3.6,3.6,0,0,1,9,3.52c.08-.15.17-.28.32-.31a.3.3,0,0,1,.17,0c0,.09,0,.19-.07.29l0,0,0,0v0s0,0,0,0a.15.15,0,0,1,0,.1A2.82,2.82,0,0,1,8.58,5,9,9,0,0,1,7.12,6,4.86,4.86,0,0,0,5.57,8l.51,0A4.69,4.69,0,0,0,8.87,6.42,4.75,4.75,0,0,0,9.92,2.54a4.47,4.47,0,0,0-.19-.65c-.06.08-.15.22-.28.37-1.15,1.37-2.28,1-3.2,2.12A3.91,3.91,0,0,0,5.38,6.25Z" transform="translate(0 0)"/><path class="cls-5" d="M4.51,5.3a2.39,2.39,0,0,0,0-1.14,2.31,2.31,0,0,0-.3-.66,2.76,2.76,0,0,0-.55-.58c-.18-.13-.37-.27-.56-.39l-.56-.35A2,2,0,0,1,2,1.79a.79.79,0,0,1-.21-.52c0-.15.07-.25.05-.26s-.08.07-.34.49a1.13,1.13,0,0,0-.13.89c.08.22.25.32.61.54,1,.59,1,.53,1.21.7a4,4,0,0,1,1,1.1A4.11,4.11,0,0,1,4.51,5.3Z" transform="translate(0 0)"/><path class="cls-5" d="M5.52,5.32a2.68,2.68,0,0,1,.05-1.14,2.21,2.21,0,0,1,.31-.67,2.26,2.26,0,0,1,.54-.57L7,2.54c.18-.12.38-.22.56-.35A2,2,0,0,0,8,1.8a.81.81,0,0,0,.2-.51A.82.82,0,0,0,8.17,1s.7.81.48,1.37c-.07.17-.25.3-.62.54-.19.13-.53.32-.76.44a3.5,3.5,0,0,0-.45.27,3.69,3.69,0,0,0-1,1.1A3.41,3.41,0,0,0,5.52,5.32Z" transform="translate(0 0)"/></g></g></svg>