<svg id="Layer_1" height="512" viewBox="0 0 512 512" width="512" xmlns="http://www.w3.org/2000/svg" data-name="Layer 1"><path d="m426.19 241.69 2.4-7.74 14.04-46.92 1.68-5.63a23.541 23.541 0 0 1 28.23-16.11l-22.52 121.16a71.076 71.076 0 0 1 -26.86 35.7l-49.17 33.88a21.817 21.817 0 0 0 -9.8 12.8l-8.28 41.7-1.39 1.81-62.82-48.08.28-.37a38.206 38.206 0 0 0 3.44-13.77l.76-13a65.014 65.014 0 0 1 43-52.32l4.23-1.47a46.554 46.554 0 0 0 17.58-11.02l21.5-21.5 6.13-6.13a29.041 29.041 0 0 1 37.57-2.99z" fill="#f7caa5"/><path d="m442.63 187.03-14.04 46.92-2.4 7.74a28.976 28.976 0 0 0 -18.88-5.46l9.03-30.14 2.3-7.68c3.04-9.28 14.5-13.99 23.92-11.4z" fill="#edb288"/><path d="m416.34 206.09-9.03 30.14a28.924 28.924 0 0 0 -18.69 8.45l-6.13 6.13 7.43-25.16a26.633 26.633 0 0 1 25.73-19.77z" fill="#edb288"/><path d="m366.4 421.43v57.57l-91.04-60.15v-67.09l16.34 12.5 62.82 48.08z" fill="#e48e66"/><path d="m360.04 93.14v60.36c0 89.87-105.84 119.76-105.84 119.76s-102.24-29.89-102.24-119.76v-60.36l.68-.29a504.768 504.768 0 0 0 53.46-26.86 504.594 504.594 0 0 0 49.9-32.99 504.74 504.74 0 0 0 103.36 59.85zm-53.44 74.45v-28.92h-36.14v-36.14h-28.92v36.14h-36.14v28.92h36.14v36.14h28.92v-36.14z" fill="#f8ec7d"/><path d="m306.6 138.67v28.92h-36.14v36.14h-28.92v-36.14h-36.14v-28.92h36.14v-36.14h28.92v36.14z" fill="#6fe3ff"/><path d="m236.64 351.76v67.09l-91.04 60.15v-57.57l11.39-8.72 63.31-48.45z" fill="#e48e66"/><path d="m104.69 236.23a28.924 28.924 0 0 1 18.69 8.45l6.13 6.13 21.5 21.5a46.554 46.554 0 0 0 17.58 11.02l4.23 1.47a65.014 65.014 0 0 1 43 52.32l.76 13a38.206 38.206 0 0 0 3.44 13.77l.28.37-63.31 48.45-.9-1.18-8.28-42.7a21.817 21.817 0 0 0 -9.8-12.8l-49.17-33.88a71.076 71.076 0 0 1 -26.86-35.7l-22.52-121.16a23.541 23.541 0 0 1 28.23 16.11l1.68 5.63 14.04 46.92 2.4 7.74a28.976 28.976 0 0 1 18.88-5.46z" fill="#f7caa5"/><path d="m122.08 225.65 7.43 25.16-6.13-6.13a28.924 28.924 0 0 0 -18.69-8.45l-9.03-30.14.69-.21a26.633 26.633 0 0 1 25.73 19.77z" fill="#edb288"/><path d="m95.66 206.09 9.03 30.14a28.976 28.976 0 0 0 -18.88 5.46l-2.4-7.74-14.04-46.92.07-.02c9.42-2.59 20.88 2.12 23.92 11.4z" fill="#edb288"/><g fill="#63316d"><path d="m85.436 327.091 49.169 33.88c.106.073.214.142.325.209a15.751 15.751 0 0 1 7.041 9.056l7.837 40.416-7.855 6.013a6 6 0 0 0 -2.353 4.765v57.57a6 6 0 0 0 9.308 5.006l91.04-60.151a6 6 0 0 0 2.692-5v-67.095a6 6 0 0 0 -9.64-4.766l-9.8 7.5a32.316 32.316 0 0 1 -.629-4.72l-.76-13c-.01-.164-.026-.326-.049-.488a70.744 70.744 0 0 0 -46.972-57.15l-4.227-1.469a40.768 40.768 0 0 1 -15.31-9.6l-20.42-20.42-6.976-23.623a32.682 32.682 0 0 0 -27.726-23.924l-1.024-3.416c-.014-.048-.029-.1-.045-.146-3.322-10.139-14.215-16.721-25.43-16.214l-.193-.646a29.5 29.5 0 0 0 -35.425-20.215 6 6 0 0 0 -4.453 6.92l22.52 121.16a6.082 6.082 0 0 0 .213.819 77.581 77.581 0 0 0 29.142 38.729zm145.2 88.531-79.036 52.223v-43.452l79.04-60.493zm-114.353-188.422c.013.052.028.1.043.153l1.883 6.377a34.977 34.977 0 0 0 -8.886-2.945l-5.2-17.362a20.649 20.649 0 0 1 12.16 13.777zm-28.646-26.985 9.136 30.5a35.119 35.119 0 0 0 -7.415 2.164l-.2-.644-11.884-39.735c4.755.772 9.013 3.7 10.363 7.715zm-41.079-29.569a17.518 17.518 0 0 1 15.382 12.47l15.739 52.611 1.212 3.909c-.28.263-.56.528-.834.8a6 6 0 0 0 .2 8.672l24.633 22.5a158.96 158.96 0 0 1 19.511 21.4 6 6 0 0 0 9.566-7.246 171.055 171.055 0 0 0 -20.986-23.017l-19.349-17.666a23.047 23.047 0 0 1 27.5 3.844l27.634 27.634a52.864 52.864 0 0 0 19.855 12.443l4.226 1.468a58.788 58.788 0 0 1 39 47.255l.745 12.748a44.036 44.036 0 0 0 2.352 11.87l-52.49 40.167-6.754-34.82c-.031-.164-.07-.325-.115-.485a27.7 27.7 0 0 0 -12.32-16.217l-49.007-33.766a65.5 65.5 0 0 1 -24.458-32.293z"/><path d="m473.986 159.467a29.5 29.5 0 0 0 -35.425 20.217l-.193.644c-11.217-.508-22.108 6.075-25.43 16.214-.016.049-.031.1-.045.146l-1.024 3.416a32.682 32.682 0 0 0 -27.725 23.919l-6.976 23.624-20.416 20.415a40.771 40.771 0 0 1 -15.311 9.6l-4.234 1.472a70.74 70.74 0 0 0 -46.968 57.148c-.023.162-.039.324-.049.488l-.76 13a32.3 32.3 0 0 1 -.629 4.719l-9.8-7.5a6 6 0 0 0 -9.645 4.766v67.09a6 6 0 0 0 2.692 5l91.04 60.151a6 6 0 0 0 9.312-4.996v-57.57a6 6 0 0 0 -2.354-4.765l-8.018-6.136 8-40.281a15.746 15.746 0 0 1 7.045-9.068c.111-.067.219-.136.325-.209l49.184-33.89a77.57 77.57 0 0 0 29.127-38.715 6.082 6.082 0 0 0 .213-.819l22.52-121.16a6 6 0 0 0 -4.456-6.92zm-49.623 40.748c1.35-4.017 5.608-6.944 10.363-7.714l-11.867 39.672-.218.7a35.16 35.16 0 0 0 -7.416-2.166zm-28.646 26.985a20.643 20.643 0 0 1 12.164-13.777l-5.2 17.362a34.992 34.992 0 0 0 -8.888 2.945l1.883-6.377c.013-.053.024-.105.041-.153zm-35.317 240.645-79.04-52.223v-51.722l69.514 53.2 9.526 7.29zm83.8-182.918a65.479 65.479 0 0 1 -24.444 32.283l-49.021 33.776a27.7 27.7 0 0 0 -12.32 16.217c-.043.151-.08.3-.11.458l-6.9 34.74-52.347-40.061a44.036 44.036 0 0 0 2.352-11.869l.745-12.75a58.785 58.785 0 0 1 38.994-47.253l4.233-1.468a52.867 52.867 0 0 0 19.851-12.444l27.63-27.63a23.039 23.039 0 0 1 27.5-3.842l-19.34 17.666a171.143 171.143 0 0 0 -20.988 23.02 6 6 0 0 0 9.566 7.246 158.989 158.989 0 0 1 19.514-21.4l24.63-22.5a6 6 0 0 0 .2-8.672c-.274-.275-.554-.539-.834-.8l1.229-3.966 15.721-52.552a17.519 17.519 0 0 1 15.383-12.472z"/><path d="m306.6 132.67h-30.14v-30.14a6 6 0 0 0 -6-6h-28.92a6 6 0 0 0 -6 6v30.14h-30.14a6 6 0 0 0 -6 6v28.92a6 6 0 0 0 6 6h30.14v30.14a6 6 0 0 0 6 6h28.92a6 6 0 0 0 6-6v-30.14h30.14a6 6 0 0 0 6-6v-28.92a6 6 0 0 0 -6-6zm-6 28.92h-30.14a6 6 0 0 0 -6 6v30.14h-16.92v-30.14a6 6 0 0 0 -6-6h-30.14v-16.92h30.14a6 6 0 0 0 6-6v-30.14h16.92v30.14a6 6 0 0 0 6 6h30.14z"/><path d="m366.04 153.5v-60.36a6 6 0 0 0 -3.646-5.519l-.663-.283a499.288 499.288 0 0 1 -102.131-59.138 6 6 0 0 0 -7.2 0 500.453 500.453 0 0 1 -49.3 32.6 500.855 500.855 0 0 1 -52.808 26.534l-.681.29a6 6 0 0 0 -3.646 5.519v60.357c0 38.737 18.526 72.771 53.577 98.423a189.2 189.2 0 0 0 52.98 27.1 6 6 0 0 0 3.314.015 198.417 198.417 0 0 0 54.752-27.054c36.276-25.652 55.452-59.706 55.452-98.484zm-111.811 113.474a182.412 182.412 0 0 1 -47.605-24.735c-32.291-23.632-48.664-53.488-48.664-88.739v-56.417a513.355 513.355 0 0 0 51.146-25.9 512.486 512.486 0 0 0 46.894-30.708 511.49 511.49 0 0 0 98.04 56.607v56.418c0 35.107-16.858 64.878-50.107 88.486a192.557 192.557 0 0 1 -49.704 24.988z"/></g></svg>